<?xml version="1.0" encoding="UTF-8" standalone="no"?>
<!DOCTYPE svg PUBLIC "-//W3C//DTD SVG 1.1//EN"
 "http://www.w3.org/Graphics/SVG/1.1/DTD/svg11.dtd">
<!-- Generated by graphviz version 5.0.0 (20220707.1540)
 -->
<!-- Title: StorageDiagram Pages: 1 -->
<svg width="998pt" height="278pt"
 viewBox="0.00 0.00 997.74 278.40" xmlns="http://www.w3.org/2000/svg" xmlns:xlink="http://www.w3.org/1999/xlink">
<g id="graph0" class="graph" transform="scale(1 1) rotate(0) translate(4 274.4)">
<title>StorageDiagram</title>
<polygon fill="white" stroke="transparent" points="-4,4 -4,-274.4 993.74,-274.4 993.74,4 -4,4"/>
<!-- 3 -->
<g id="node1" class="node">
<title>3</title>
<polygon fill="#f2f2f2" stroke="black" points="0,-96.3 0,-269.9 527.68,-269.9 527.68,-96.3 0,-96.3"/>
<text text-anchor="middle" x="263.84" y="-253.3" font-family="Courier New" font-size="14.00">GasContract &lt;&lt;Contract&gt;&gt;</text>
<polyline fill="none" stroke="black" points="0,-245.1 527.68,-245.1 "/>
<text text-anchor="middle" x="24.8" y="-228.5" font-family="Courier New" font-size="14.00">slot</text>
<polyline fill="none" stroke="black" points="0,-220.3 49.61,-220.3 "/>
<text text-anchor="middle" x="24.8" y="-203.7" font-family="Courier New" font-size="14.00">0</text>
<polyline fill="none" stroke="black" points="0,-195.5 49.61,-195.5 "/>
<text text-anchor="middle" x="24.8" y="-178.9" font-family="Courier New" font-size="14.00">1</text>
<polyline fill="none" stroke="black" points="0,-170.7 49.61,-170.7 "/>
<text text-anchor="middle" x="24.8" y="-154.1" font-family="Courier New" font-size="14.00">2</text>
<polyline fill="none" stroke="black" points="0,-145.9 49.61,-145.9 "/>
<text text-anchor="middle" x="24.8" y="-129.3" font-family="Courier New" font-size="14.00">3&#45;7</text>
<polyline fill="none" stroke="black" points="0,-121.1 49.61,-121.1 "/>
<text text-anchor="middle" x="24.8" y="-104.5" font-family="Courier New" font-size="14.00">8</text>
<polyline fill="none" stroke="black" points="49.61,-96.3 49.61,-245.1 "/>
<text text-anchor="middle" x="288.64" y="-228.5" font-family="Courier New" font-size="14.00">type: &lt;inherited contract&gt;.variable (bytes)</text>
<polyline fill="none" stroke="black" points="49.61,-220.3 527.68,-220.3 "/>
<text text-anchor="middle" x="288.63" y="-203.7" font-family="Courier New" font-size="14.00">mapping(address=&gt;uint256): balances (32)</text>
<polyline fill="none" stroke="black" points="49.61,-195.5 527.68,-195.5 "/>
<text text-anchor="middle" x="288.43" y="-178.9" font-family="Courier New" font-size="14.00">mapping(address=&gt;uint8): whitelist (32)</text>
<polyline fill="none" stroke="black" points="49.61,-170.7 527.68,-170.7 "/>
<text text-anchor="middle" x="145.82" y="-154.1" font-family="Courier New" font-size="14.00">unallocated (12)</text>
<polyline fill="none" stroke="black" points="242.03,-145.9 242.03,-170.7 "/>
<text text-anchor="middle" x="384.45" y="-154.1" font-family="Courier New" font-size="14.00">address: contractOwner (20)</text>
<polyline fill="none" stroke="black" points="49.61,-145.9 527.68,-145.9 "/>
<text text-anchor="middle" x="288.53" y="-129.3" font-family="Courier New" font-size="14.00">address[5]: administrators (160)</text>
<polyline fill="none" stroke="black" points="49.61,-121.1 527.68,-121.1 "/>
<text text-anchor="middle" x="288.64" y="-104.5" font-family="Courier New" font-size="14.00">mapping(address=&gt;ImportantStruct): whiteListStruct (32)</text>
</g>
<!-- 1 -->
<g id="node2" class="node">
<title>1</title>
<polygon fill="#f2f2f2" stroke="black" points="617.49,-118.7 617.49,-267.5 935.94,-267.5 935.94,-118.7 617.49,-118.7"/>
<text text-anchor="middle" x="776.71" y="-250.9" font-family="Courier New" font-size="14.00">address[5]: administrators &lt;&lt;Array&gt;&gt;</text>
<polyline fill="none" stroke="black" points="617.49,-242.7 935.94,-242.7 "/>
<text text-anchor="middle" x="642.29" y="-226.1" font-family="Courier New" font-size="14.00">slot</text>
<polyline fill="none" stroke="black" points="617.49,-217.9 667.09,-217.9 "/>
<text text-anchor="middle" x="642.29" y="-201.3" font-family="Courier New" font-size="14.00">3</text>
<polyline fill="none" stroke="black" points="617.49,-193.1 667.09,-193.1 "/>
<text text-anchor="middle" x="642.29" y="-176.5" font-family="Courier New" font-size="14.00">4</text>
<polyline fill="none" stroke="black" points="617.49,-168.3 667.09,-168.3 "/>
<text text-anchor="middle" x="642.29" y="-151.7" font-family="Courier New" font-size="14.00">6</text>
<polyline fill="none" stroke="black" points="617.49,-143.5 667.09,-143.5 "/>
<text text-anchor="middle" x="642.29" y="-126.9" font-family="Courier New" font-size="14.00">7</text>
<polyline fill="none" stroke="black" points="667.09,-118.7 667.09,-242.7 "/>
<text text-anchor="middle" x="801.21" y="-226.1" font-family="Courier New" font-size="14.00">type: variable (bytes)</text>
<polyline fill="none" stroke="black" points="667.09,-217.9 935.33,-217.9 "/>
<text text-anchor="middle" x="742.3" y="-201.3" font-family="Courier New" font-size="14.00">unallocated (12)</text>
<polyline fill="none" stroke="black" points="817.51,-193.1 817.51,-217.9 "/>
<text text-anchor="middle" x="876.42" y="-201.3" font-family="Courier New" font-size="14.00">address (20)</text>
<polyline fill="none" stroke="black" points="667.09,-193.1 935.33,-193.1 "/>
<text text-anchor="middle" x="742.3" y="-176.5" font-family="Courier New" font-size="14.00">unallocated (12)</text>
<polyline fill="none" stroke="black" points="817.51,-168.3 817.51,-193.1 "/>
<text text-anchor="middle" x="876.42" y="-176.5" font-family="Courier New" font-size="14.00">address (20)</text>
<polyline fill="none" stroke="black" points="667.09,-168.3 935.33,-168.3 "/>
<text text-anchor="middle" x="742.3" y="-151.7" font-family="Courier New" font-size="14.00">unallocated (12)</text>
<polyline fill="none" stroke="black" points="817.51,-143.5 817.51,-168.3 "/>
<text text-anchor="middle" x="876.42" y="-151.7" font-family="Courier New" font-size="14.00">address (20)</text>
<polyline fill="none" stroke="black" points="667.09,-143.5 935.33,-143.5 "/>
<text text-anchor="middle" x="742.3" y="-126.9" font-family="Courier New" font-size="14.00">unallocated (12)</text>
<polyline fill="none" stroke="black" points="817.51,-118.7 817.51,-143.5 "/>
<text text-anchor="middle" x="876.42" y="-126.9" font-family="Courier New" font-size="14.00">address (20)</text>
</g>
<!-- 3&#45;&gt;1 -->
<g id="edge1" class="edge">
<title>3:8&#45;&gt;1</title>
<path fill="none" stroke="black" d="M527.68,-133.1C553.71,-133.1 580.85,-136.26 607.22,-141.13"/>
<polygon fill="black" stroke="black" points="606.81,-144.61 617.29,-143.08 608.14,-137.74 606.81,-144.61"/>
</g>
<!-- 2 -->
<g id="node3" class="node">
<title>2</title>
<polygon fill="#f2f2f2" stroke="black" points="563.68,-0.5 563.68,-99.7 989.74,-99.7 989.74,-0.5 563.68,-0.5"/>
<text text-anchor="middle" x="776.71" y="-83.1" font-family="Courier New" font-size="14.00">ImportantStruct &lt;&lt;Struct&gt;&gt;</text>
<polyline fill="none" stroke="black" points="563.68,-74.9 989.74,-74.9 "/>
<text text-anchor="middle" x="596.88" y="-58.3" font-family="Courier New" font-size="14.00">offset</text>
<polyline fill="none" stroke="black" points="563.68,-50.1 630.09,-50.1 "/>
<text text-anchor="middle" x="596.88" y="-33.5" font-family="Courier New" font-size="14.00">0</text>
<polyline fill="none" stroke="black" points="563.68,-25.3 630.09,-25.3 "/>
<text text-anchor="middle" x="596.88" y="-8.7" font-family="Courier New" font-size="14.00">1</text>
<polyline fill="none" stroke="black" points="630.09,-0.5 630.09,-74.9 "/>
<text text-anchor="middle" x="809.92" y="-58.3" font-family="Courier New" font-size="14.00">type: variable (bytes)</text>
<polyline fill="none" stroke="black" points="630.09,-50.1 989.74,-50.1 "/>
<text text-anchor="middle" x="809.6" y="-33.5" font-family="Courier New" font-size="14.00">uint256: amount (32)</text>
<polyline fill="none" stroke="black" points="630.09,-25.3 989.74,-25.3 "/>
<text text-anchor="middle" x="705.3" y="-8.7" font-family="Courier New" font-size="14.00">unallocated (31)</text>
<polyline fill="none" stroke="black" points="780.51,-0.5 780.51,-25.3 "/>
<text text-anchor="middle" x="885.13" y="-8.7" font-family="Courier New" font-size="14.00">bool: paymentStatus (1)</text>
</g>
<!-- 3&#45;&gt;2 -->
<g id="edge2" class="edge">
<title>3:11&#45;&gt;2</title>
<path fill="none" stroke="black" d="M527.68,-109.1C552.88,-109.1 579.15,-106.18 604.75,-101.64"/>
<polygon fill="black" stroke="black" points="605.72,-105.02 614.91,-99.75 604.44,-98.14 605.72,-105.02"/>
</g>
</g>
</svg>
